<svg width="70" height="101" viewBox="0 0 70 101" fill="none" xmlns="http://www.w3.org/2000/svg">
<path d="M7.67765 92.882H11.3956V94H6.33865V85.238H11.3306V86.356H7.67765V89.06H10.9146V90.178H7.67765V92.882ZM13.0164 94V84.809H14.3034V94H13.0164ZM20.2459 90.23V89.996C20.2286 89.502 20.0942 89.112 19.8429 88.826C19.5916 88.5313 19.2319 88.384 18.7639 88.384C18.3306 88.384 17.9579 88.5443 17.6459 88.865C17.3339 89.177 17.1389 89.632 17.0609 90.23H20.2459ZM21.0649 92.505V93.649C20.5796 93.9263 19.9382 94.065 19.1409 94.065C18.1182 94.065 17.3036 93.7573 16.6969 93.142C16.0902 92.5267 15.7869 91.7207 15.7869 90.724C15.7869 89.6667 16.0642 88.839 16.6189 88.241C17.1736 87.6343 17.8799 87.331 18.7379 87.331C19.5786 87.331 20.2459 87.5953 20.7399 88.124C21.2339 88.644 21.4809 89.398 21.4809 90.386C21.4809 90.6547 21.4549 90.9363 21.4029 91.231H17.0739C17.1606 91.803 17.4032 92.2407 17.8019 92.544C18.2006 92.8473 18.7032 92.999 19.3099 92.999C20.0119 92.999 20.5969 92.8343 21.0649 92.505ZM23.93 90.737C23.9473 91.4043 24.151 91.9547 24.541 92.388C24.931 92.8127 25.477 93.025 26.179 93.025C26.699 93.025 27.1843 92.882 27.635 92.596V93.74C27.2103 94 26.6687 94.13 26.01 94.13C24.9787 94.13 24.1553 93.805 23.54 93.155C22.9247 92.505 22.617 91.6947 22.617 90.724C22.617 89.7793 22.9247 88.9733 23.54 88.306C24.164 87.63 25.0047 87.292 26.062 87.292C26.634 87.292 27.1583 87.4133 27.635 87.656V88.826C27.2103 88.5573 26.7293 88.423 26.192 88.423C25.5073 88.423 24.957 88.6397 24.541 89.073C24.1337 89.5063 23.93 90.061 23.93 90.737ZM30.7511 88.397V92.024C30.7511 92.6567 31.0545 92.973 31.6611 92.973C32.0165 92.973 32.3155 92.8777 32.5581 92.687V93.831C32.2721 93.987 31.9211 94.065 31.5051 94.065C30.1445 94.065 29.4641 93.376 29.4641 91.998V88.397H28.4371V87.409H29.4641V85.797H30.7511V87.409H32.4801V88.397H30.7511ZM35.2364 87.409V88.566C35.5571 87.7513 36.1334 87.344 36.9654 87.344C37.0868 87.344 37.2211 87.357 37.3684 87.383V88.631C37.1864 88.553 36.9828 88.514 36.7574 88.514C36.3154 88.514 35.9514 88.709 35.6654 89.099C35.3794 89.489 35.2364 89.9527 35.2364 90.49V94H33.9624V87.409H35.2364ZM38.4197 94V87.409H39.7067V94H38.4197ZM38.4847 85.966C38.3374 85.81 38.2637 85.6193 38.2637 85.394C38.2637 85.1687 38.3374 84.978 38.4847 84.822C38.6407 84.666 38.8314 84.588 39.0567 84.588C39.282 84.588 39.4727 84.666 39.6287 84.822C39.7847 84.978 39.8627 85.1687 39.8627 85.394C39.8627 85.6107 39.7847 85.797 39.6287 85.953C39.4727 86.109 39.282 86.187 39.0567 86.187C38.8314 86.187 38.6407 86.1133 38.4847 85.966ZM42.5032 90.737C42.5206 91.4043 42.7242 91.9547 43.1142 92.388C43.5042 92.8127 44.0502 93.025 44.7522 93.025C45.2722 93.025 45.7576 92.882 46.2082 92.596V93.74C45.7836 94 45.2419 94.13 44.5832 94.13C43.5519 94.13 42.7286 93.805 42.1132 93.155C41.4979 92.505 41.1902 91.6947 41.1902 90.724C41.1902 89.7793 41.4979 88.9733 42.1132 88.306C42.7372 87.63 43.5779 87.292 44.6352 87.292C45.2072 87.292 45.7316 87.4133 46.2082 87.656V88.826C45.7836 88.5573 45.3026 88.423 44.7652 88.423C44.0806 88.423 43.5302 88.6397 43.1142 89.073C42.7069 89.5063 42.5032 90.061 42.5032 90.737ZM47.7254 94V87.409H49.0124V94H47.7254ZM47.7904 85.966C47.643 85.81 47.5694 85.6193 47.5694 85.394C47.5694 85.1687 47.643 84.978 47.7904 84.822C47.9464 84.666 48.137 84.588 48.3624 84.588C48.5877 84.588 48.7784 84.666 48.9344 84.822C49.0904 84.978 49.1684 85.1687 49.1684 85.394C49.1684 85.6107 49.0904 85.797 48.9344 85.953C48.7784 86.109 48.5877 86.187 48.3624 86.187C48.137 86.187 47.9464 86.1133 47.7904 85.966ZM54.3309 91.062H53.3429C52.8576 91.062 52.4892 91.1573 52.2379 91.348C51.9952 91.5387 51.8739 91.7813 51.8739 92.076C51.8739 92.3793 51.9692 92.6177 52.1599 92.791C52.3506 92.9643 52.6279 93.051 52.9919 93.051C53.4079 93.051 53.7329 92.9383 53.9669 92.713C54.2096 92.479 54.3309 92.1757 54.3309 91.803V91.062ZM51.0159 88.982V87.747C51.5272 87.4523 52.2032 87.305 53.0439 87.305C54.7686 87.305 55.6309 88.1413 55.6309 89.814V94H54.3699V93.22C54.0319 93.7747 53.4382 94.052 52.5889 94.052C51.9649 94.052 51.4622 93.8743 51.0809 93.519C50.7082 93.155 50.5219 92.6957 50.5219 92.141C50.5219 91.5083 50.7602 91.0187 51.2369 90.672C51.7136 90.3167 52.3809 90.139 53.2389 90.139H54.3309V89.762C54.3309 89.3113 54.2226 88.9733 54.0059 88.748C53.7892 88.514 53.4296 88.397 52.9269 88.397C52.2249 88.397 51.5879 88.592 51.0159 88.982ZM58.6212 87.409V88.54C59.0112 87.7253 59.6959 87.318 60.6752 87.318C61.3252 87.318 61.8409 87.5173 62.2222 87.916C62.6035 88.3147 62.7942 88.8563 62.7942 89.541V94H61.5202V89.84C61.5202 89.3807 61.4032 89.0297 61.1692 88.787C60.9439 88.5443 60.6405 88.423 60.2592 88.423C59.8085 88.423 59.4229 88.6007 59.1022 88.956C58.7815 89.3027 58.6212 89.7923 58.6212 90.425V94H57.3472V87.409H58.6212Z" fill="#3A4A4E"/>
<rect width="70" height="70" rx="7" fill="#CAC2FE"/>
<path d="M44.6824 37.9467L38.7324 35H30.7991L24.8491 37.9467C22.9224 38.91 21.7324 40.8933 21.7324 43.0467V51.4333H47.7991V43.0467C47.7991 40.8933 46.6091 38.91 44.6824 37.9467Z" fill="url(#paint0_linear)"/>
<path d="M34.1992 45.1992H35.3326V47.4659H34.1992V45.1992Z" fill="#102E42"/>
<path d="M33.6328 38.4009V43.5009H35.8995V38.4009L34.7661 37.2676L33.6328 38.4009Z" fill="#102E42"/>
<path d="M26.832 44.6328H27.9654V51.4328H26.832V44.6328Z" fill="#1B4666"/>
<path d="M29.0996 45.1992H33.0663V46.3326H29.0996V45.1992Z" fill="#E0D0B3"/>
<path d="M30.8001 35L28.1367 36.3033L31.9334 40.6667L34.7667 37.2667V35H30.8001Z" fill="#FFD96E"/>
<path d="M38.7323 35L41.3956 36.3033L37.599 40.6667L34.7656 37.2667V35H38.7323Z" fill="#FFD96E"/>
<path d="M42.1333 27.6328H41V31.5995L42.6433 30.8061C43.04 30.6361 43.2667 30.2395 43.2667 29.7861V28.7661C43.2667 28.1428 42.7567 27.6328 42.1333 27.6328Z" fill="#EAA28C"/>
<path d="M27.399 27.6328C26.7756 27.6328 26.2656 28.1428 26.2656 28.7661V29.7861C26.2656 30.2395 26.4923 30.6361 26.889 30.8061L28.5323 31.5995V27.6328H27.399Z" fill="#EAA28C"/>
<path d="M28.5332 24.8008V30.1274C28.5332 32.4508 29.7232 34.6041 31.7065 35.8508L33.2932 36.8708C34.1999 37.4374 35.3899 37.4374 36.3532 36.8708L37.9399 35.8508C39.9232 34.6041 41.1132 32.4508 41.1132 30.1274V24.8008H28.5332Z" fill="#F7B49A"/>
<path d="M35.3332 18.5664H34.1999C31.0832 18.5664 28.5332 21.1164 28.5332 24.2331V24.7997H40.9999V24.2331C40.9999 21.1164 38.4499 18.5664 35.3332 18.5664Z" fill="#FFD96E"/>
<path d="M28.5332 24.8008L30.1199 26.7841C30.5732 27.2941 31.1965 27.6341 31.8765 27.6341H37.6565C38.3365 27.6341 39.0165 27.2941 39.4132 26.7841L40.9999 24.8008H28.5332Z" fill="#FFD96E"/>
<path d="M41.5664 44.6328H42.6997V51.4328H41.5664V44.6328Z" fill="#1B4666"/>
<path d="M41.9053 39.7607L43.492 38.174C43.7187 37.9473 44.002 37.834 44.2853 37.834H44.3987C45.022 37.834 45.532 38.344 45.532 38.9673V39.0807C45.532 39.364 45.4187 39.6473 45.192 39.874L44.172 40.894C43.9453 41.1207 43.832 41.404 43.832 41.6873V41.8007C43.832 42.424 44.342 42.934 44.9653 42.934H45.0787C45.362 42.934 45.6453 42.8207 45.872 42.594L46.892 41.574C47.1187 41.3473 47.402 41.234 47.6853 41.234H47.7987C48.422 41.234 48.932 41.744 48.932 42.3673V42.4807C48.932 42.764 48.8187 43.0473 48.592 43.274L47.0053 44.8607C46.7787 45.0873 46.4953 45.2007 46.212 45.2007H43.7753C43.492 45.2007 43.2087 45.314 42.982 45.5406L37.4287 51.094C37.202 51.3207 36.9187 51.434 36.5787 51.434C35.8987 51.434 35.3887 50.924 35.3887 50.244C35.3887 49.904 35.502 49.6207 35.7287 49.394L41.282 43.8407C41.5087 43.614 41.622 43.3307 41.622 43.0473V40.6107C41.5653 40.2707 41.6787 39.9873 41.9053 39.7607Z" fill="#D6D7D8"/>
<path d="M47.7994 40.6667H47.686C47.2327 40.6667 46.7794 40.8367 46.496 41.1767L45.476 42.1967C45.3627 42.31 45.2494 42.3667 45.0794 42.3667H44.966C44.626 42.3667 44.3994 42.14 44.3994 41.8V41.6867C44.3994 41.5167 44.456 41.4033 44.5694 41.29L45.5893 40.27C45.9293 39.93 46.0994 39.5333 46.0994 39.08V38.9667C46.0994 38.1167 45.4194 37.38 44.5694 37.2667L39.8094 34.8867C40.4894 34.0933 40.9994 33.13 41.2827 32.0533L42.8694 31.26C43.436 30.9767 43.8327 30.41 43.8327 29.73V28.7667C43.8327 27.8033 43.096 27.0667 42.1327 27.0667H41.566V24.2333C41.566 20.7767 38.7894 18 35.3327 18H34.1994C30.7427 18 27.966 20.7767 27.966 24.2333V27.0667H27.3993C26.436 27.0667 25.6993 27.8033 25.6993 28.7667V29.7867C25.6993 30.41 26.0394 31.0333 26.6627 31.3167L28.2493 32.11C28.5327 33.13 29.0427 34.0933 29.7227 34.9433L24.6227 37.4933C22.4693 38.5133 21.166 40.6667 21.166 43.0467V52H48.366V44.2933L48.9894 43.67C49.3294 43.33 49.4994 42.9333 49.4994 42.48V42.3667C49.4994 41.4033 48.7627 40.6667 47.7994 40.6667ZM36.466 38.4L35.8994 37.6633C36.1827 37.6067 36.4094 37.4367 36.636 37.3233L38.2227 36.3033C38.506 36.1333 38.7894 35.9067 39.016 35.68L40.546 36.4167L37.5993 39.8167L36.466 38.4ZM34.1994 38.8533L34.766 38.1733L35.3327 38.8533V42.9333H34.1994V38.8533ZM33.066 38.4L31.9327 39.8167L29.0427 36.53L30.5727 35.7933C30.856 36.02 31.0827 36.19 31.366 36.4167L32.9527 37.4367C33.1793 37.6067 33.406 37.72 33.6894 37.7767L33.066 38.4ZM42.1327 28.2C42.4727 28.2 42.6994 28.4267 42.6994 28.7667V29.7867C42.6994 30.0133 42.586 30.1833 42.3594 30.2967L41.5094 30.75C41.5094 30.58 41.566 30.3533 41.566 30.1833V28.2H42.1327ZM34.1994 19.1333H35.3327C38.166 19.1333 40.4327 21.4 40.4327 24.2333H29.0993C29.0993 21.4 31.366 19.1333 34.1994 19.1333ZM39.8094 25.3667L38.9594 26.4433C38.676 26.84 38.166 27.0667 37.656 27.0667H31.876C31.366 27.0667 30.856 26.84 30.5727 26.4433L29.7227 25.3667H39.8094ZM27.1727 30.2967C27.0027 30.1833 26.8327 30.0133 26.8327 29.7867V28.7667C26.8327 28.4267 27.0593 28.2 27.3993 28.2H27.966V30.1267C27.966 30.2967 27.966 30.5233 28.0227 30.6933L27.1727 30.2967ZM29.0993 26.4433L29.666 27.18C30.176 27.86 31.026 28.2567 31.876 28.2567H37.656C38.506 28.2567 39.356 27.86 39.866 27.18L40.4327 26.4433V30.1833C40.4327 32.3367 39.356 34.32 37.5427 35.4533L35.956 36.4733C35.2193 36.9267 34.256 36.9267 33.5194 36.4733L31.9327 35.4533C30.1193 34.32 29.0427 32.3367 29.0427 30.1833V26.4433H29.0993ZM22.2993 43.0467C22.2993 41.12 23.376 39.3633 25.1327 38.5133L28.0227 37.0967L31.9894 41.63L33.1227 40.27V44.0667H36.5227V40.2133L37.656 41.5733L41.6227 37.04L43.1527 37.8333L41.566 39.42C41.1694 39.7033 40.9994 40.1 40.9994 40.5533V42.99C40.9994 43.16 40.9427 43.2733 40.8294 43.3867L35.276 48.94C34.936 49.28 34.766 49.7333 34.766 50.1867C34.766 50.4133 34.8227 50.64 34.8794 50.81H27.966V44.6333H26.8327V50.8667H22.2993V43.0467ZM38.3927 50.8667L43.3227 45.9367C43.436 45.8233 43.5494 45.7667 43.7194 45.7667H46.156C46.5527 45.7667 46.8927 45.6533 47.176 45.4267V50.8667H38.3927ZM48.366 42.48C48.366 42.65 48.3094 42.7633 48.196 42.8767L46.6094 44.4633C46.496 44.5767 46.3827 44.6333 46.2127 44.6333H43.776C43.3227 44.6333 42.8694 44.8033 42.586 45.1433L37.0327 50.6967C36.806 50.9233 36.4094 50.9233 36.126 50.6967C35.8994 50.47 35.8994 50.0733 36.126 49.79L41.6794 44.2367C42.0194 43.8967 42.1894 43.5 42.1894 43.0467V40.61C42.1894 40.44 42.246 40.3267 42.3594 40.2133L43.946 38.6267C44.0594 38.5133 44.1727 38.4567 44.3427 38.4567H44.3994C44.7394 38.4567 44.966 38.6833 44.966 39.0233V39.1367C44.966 39.3067 44.9094 39.42 44.796 39.5333L43.776 40.5533C43.436 40.8367 43.266 41.2333 43.266 41.6867V41.8C43.266 42.7633 44.0027 43.5 44.966 43.5H45.0794C45.5327 43.5 45.986 43.33 46.2694 42.99L47.2894 41.97C47.4027 41.8567 47.516 41.8 47.686 41.8H47.7994C48.1394 41.8 48.366 42.0267 48.366 42.3667V42.48Z" fill="black"/>
<path d="M34.1992 45.1992H35.3326V47.4659H34.1992V45.1992Z" fill="black"/>
<path d="M29.0996 45.1992H33.0663V46.3326H29.0996V45.1992Z" fill="black"/>
<defs>
<linearGradient id="paint0_linear" x1="25.0293" y1="35" x2="48.9839" y2="51.2273" gradientUnits="userSpaceOnUse">
<stop stop-color="#7971AD"/>
<stop offset="1" stop-color="#88E0F4"/>
</linearGradient>
</defs>
</svg>
