<svg width="70" height="101" viewBox="0 0 70 101" fill="none" xmlns="http://www.w3.org/2000/svg">
<path d="M21.0815 94L21.7575 85.238H23.3435L24.5135 88.436C24.7215 88.982 24.9295 89.5627 25.1375 90.178C25.3455 90.7847 25.5015 91.257 25.6055 91.595L25.7745 92.102C26.1732 90.9233 26.6108 89.7013 27.0875 88.436L28.3095 85.238H29.8955L30.7015 94H29.3755L29.0635 90.568L28.7905 87.058C28.4005 88.1587 27.9758 89.3287 27.5165 90.568L26.2945 93.831H25.2415L24.0585 90.568L22.8755 87.11C22.8755 87.4913 22.8062 88.644 22.6675 90.568L22.4075 94H21.0815ZM35.9036 91.062H34.9156C34.4303 91.062 34.062 91.1573 33.8106 91.348C33.568 91.5387 33.4466 91.7813 33.4466 92.076C33.4466 92.3793 33.542 92.6177 33.7326 92.791C33.9233 92.9643 34.2006 93.051 34.5646 93.051C34.9806 93.051 35.3056 92.9383 35.5396 92.713C35.7823 92.479 35.9036 92.1757 35.9036 91.803V91.062ZM32.5886 88.982V87.747C33.1 87.4523 33.776 87.305 34.6166 87.305C36.3413 87.305 37.2036 88.1413 37.2036 89.814V94H35.9426V93.22C35.6046 93.7747 35.011 94.052 34.1616 94.052C33.5376 94.052 33.035 93.8743 32.6536 93.519C32.281 93.155 32.0946 92.6957 32.0946 92.141C32.0946 91.5083 32.333 91.0187 32.8096 90.672C33.2863 90.3167 33.9536 90.139 34.8116 90.139H35.9036V89.762C35.9036 89.3113 35.7953 88.9733 35.5786 88.748C35.362 88.514 35.0023 88.397 34.4996 88.397C33.7976 88.397 33.1606 88.592 32.5886 88.982ZM38.9719 94V87.409H40.2589V94H38.9719ZM39.0369 85.966C38.8896 85.81 38.8159 85.6193 38.8159 85.394C38.8159 85.1687 38.8896 84.978 39.0369 84.822C39.1929 84.666 39.3836 84.588 39.6089 84.588C39.8343 84.588 40.0249 84.666 40.1809 84.822C40.3369 84.978 40.4149 85.1687 40.4149 85.394C40.4149 85.6107 40.3369 85.797 40.1809 85.953C40.0249 86.109 39.8343 86.187 39.6089 86.187C39.3836 86.187 39.1929 86.1133 39.0369 85.966ZM44.7715 92.973C45.2741 92.973 45.6988 92.7823 46.0455 92.401C46.3921 92.0197 46.5655 91.439 46.5655 90.659C46.5655 89.905 46.3835 89.346 46.0195 88.982C45.6641 88.618 45.2611 88.436 44.8105 88.436C44.2991 88.436 43.8788 88.6397 43.5495 89.047C43.2201 89.4457 43.0555 90.0177 43.0555 90.763C43.0555 91.4217 43.2158 91.9547 43.5365 92.362C43.8658 92.7693 44.2775 92.973 44.7715 92.973ZM46.5655 84.809H47.8525V94H46.5655V92.999C46.1061 93.727 45.4345 94.091 44.5505 94.091C43.6838 94.091 42.9991 93.766 42.4965 93.116C41.9938 92.4573 41.7425 91.6643 41.7425 90.737C41.7425 89.7057 42.0068 88.878 42.5355 88.254C43.0641 87.63 43.7445 87.318 44.5765 87.318C45.4345 87.318 46.0975 87.682 46.5655 88.41V84.809Z" fill="#3A4A4E"/>
<rect width="70" height="70" rx="7" fill="#D3CAFF"/>
<path d="M51.2206 20.5857V29.0374C51.2206 29.6184 50.7452 30.0938 50.1641 30.0938H46.9948L46.176 31.7366C46.0281 32.0218 45.7323 32.2067 45.4101 32.2067C45.0879 32.2067 44.7921 32.0218 44.6442 31.7366L43.8254 30.0938H43.2972H40.6561C40.075 30.0938 39.5996 29.6184 39.5996 29.0374V20.5857C39.5996 20.0047 40.075 19.5293 40.6561 19.5293H50.1641C50.7452 19.5293 51.2206 20.0047 51.2206 20.5857Z" fill="#E6E9ED"/>
<path d="M49.1081 23.4016V23.4914C49.1081 23.9985 48.9073 24.4844 48.5481 24.8436L45.4105 27.9813L42.2728 24.8436C41.9136 24.4844 41.7129 23.9985 41.7129 23.4914V23.4016C41.7129 22.9526 41.8925 22.5194 42.2094 22.2025C42.5686 21.8433 43.0546 21.6426 43.5617 21.6426C44.0688 21.6426 44.5547 21.8433 44.9139 22.2025L45.4105 22.699L45.907 22.2025C46.2662 21.8433 46.7522 21.6426 47.2593 21.6426C47.7664 21.6426 48.2523 21.8433 48.6115 22.2025C48.9285 22.5194 49.1081 22.9526 49.1081 23.4016Z" fill="#FE9A7F"/>
<path d="M41.1854 33.2631V32.2067C41.1854 31.0393 42.1309 30.0938 43.2983 30.0938H43.8265L44.6452 31.7365C44.7931 32.0218 45.0889 32.2067 45.4112 32.2067V35.339C45.4112 36.0416 45.1312 36.7124 44.64 37.2037L44.3547 37.4889H41.1854L40.7469 37.0505C40.3508 36.6543 40.1289 36.1155 40.1289 35.5556V34.3196C40.1289 33.7385 40.6043 33.2631 41.1854 33.2631Z" fill="#F0D0B4"/>
<path d="M40.6561 42.2423V37.4883H41.1843H44.3537C44.6442 37.4883 44.8819 37.726 44.8819 38.0165V44.9257C44.8819 46.653 43.4821 48.0528 41.7548 48.0528C41.0417 48.0528 40.355 47.8098 39.8004 47.3661L35.3739 43.827V51.2222H29.0352V45.9399L32.7327 43.827L32.326 41.7828L34.3174 41.1859L34.8192 37.689L35.0094 37.7471C35.5957 37.9267 36.1398 38.2278 36.5993 38.6398L40.6561 42.2423Z" fill="#FFD96E"/>
<path d="M37.4872 26.3962V29.5656H36.9273C36.2512 29.5656 35.6384 29.9723 35.3743 30.6009C35.1155 31.2348 35.2581 31.9637 35.7441 32.4444L36.135 32.8353L33.89 35.075L33.4991 34.6841C33.1769 34.3619 32.7437 34.1928 32.3053 34.1928C32.0887 34.1928 31.8669 34.2351 31.6609 34.3196C31.0323 34.5837 30.6203 35.1965 30.6203 35.8779V36.4325H29.0356H27.4509V35.8779C27.4509 35.1965 27.0389 34.5837 26.4103 34.3196C25.7817 34.0608 25.0528 34.2034 24.5721 34.6894L24.1812 35.075L21.9362 32.8353L22.3324 32.4444C22.6546 32.1222 22.8237 31.6891 22.8237 31.2506C22.8237 31.0341 22.7814 30.8122 22.6969 30.6062C22.4328 29.9776 21.82 29.5656 21.1386 29.5656H20.584V26.3962H21.1386C21.82 26.3962 22.4328 25.9842 22.6969 25.3556C22.9557 24.727 22.8131 23.9981 22.3324 23.5174L21.9362 23.1265L24.1812 20.8816L24.5721 21.2724C24.8943 21.5999 25.3275 21.769 25.7659 21.769C25.9825 21.769 26.2043 21.7267 26.4103 21.6422C27.0389 21.3781 27.4509 20.7653 27.4509 20.0839V19.5293H30.6203V20.0839C30.6203 20.7653 31.0323 21.3781 31.6609 21.6422C32.2895 21.901 33.0184 21.7584 33.4991 21.2724L33.89 20.8816L36.135 23.1265L35.7441 23.5174C35.4166 23.8396 35.2475 24.2728 35.2475 24.7165C35.2475 24.933 35.2898 25.1496 35.3743 25.3609C35.6384 25.9895 36.2512 26.3962 36.9273 26.3962H37.4872ZM33.2614 27.9809C33.2614 25.6462 31.3704 23.7551 29.0356 23.7551C26.7008 23.7551 24.8098 25.6462 24.8098 27.9809C24.8098 30.3157 26.7008 32.2067 29.0356 32.2067C31.3704 32.2067 33.2614 30.3157 33.2614 27.9809Z" fill="#CAC2FE"/>
<path d="M34.8196 37.6899L34.3178 41.1867L32.3264 41.7836L30.7734 42.2432L32.0782 39.4753L33.1505 37.1934L34.8196 37.6899Z" fill="#FFD96E"/>
<path d="M30.6198 36.4316L33.15 37.1923L32.0777 39.4742L30.9368 38.3333L29.0352 36.4316H30.6198Z" fill="#FFD0C3"/>
<path d="M32.326 41.7832L32.7327 43.8274L29.0352 45.9403L30.773 42.2428L32.326 41.7832Z" fill="#FFD96E"/>
<path d="M32.0779 39.475L30.7732 42.2429L30.0918 39.6017L30.937 38.334L32.0779 39.475Z" fill="#FFD0C3"/>
<path d="M30.936 38.3333L30.0909 39.601H27.978L27.1328 38.3333L29.0344 36.4316L30.936 38.3333Z" fill="#3BAFDA"/>
<path d="M30.7726 42.2427L29.0347 45.9403L27.2969 42.2427L27.9783 39.6016H30.0912L30.7726 42.2427Z" fill="#4FC1E9"/>
<path d="M29.035 29.0367C29.6184 29.0367 30.0914 28.5637 30.0914 27.9803C30.0914 27.3968 29.6184 26.9238 29.035 26.9238C28.4515 26.9238 27.9785 27.3968 27.9785 27.9803C27.9785 28.5637 28.4515 29.0367 29.035 29.0367Z" fill="#FFD96E"/>
<path d="M22.6967 51.2238H19.5273V41.795C19.5273 39.8775 20.8162 38.203 22.665 37.7118L23.2355 37.5586L23.7531 41.1875L25.7446 41.7844L25.3378 43.8286L29.0354 45.9415V51.2238H22.6967Z" fill="#FFD96E"/>
<path d="M29.0366 36.4316L27.135 38.3333L25.994 39.4742L24.8848 37.1183L27.4519 36.4316H29.0366Z" fill="#FFD0C3"/>
<path d="M27.2976 42.2428L29.0355 45.9403L25.3379 43.8274L25.7446 41.7832L27.2923 42.2428H27.2976Z" fill="#FFD96E"/>
<path d="M27.1332 38.334L27.9783 39.6017L27.2969 42.2429H27.2916L25.9922 39.475L27.1332 38.334Z" fill="#FFD0C3"/>
<path d="M25.9937 39.475L27.2931 42.2429L25.7454 41.7834L23.754 41.1865L23.2363 37.5576L24.8844 37.1191L25.9937 39.475Z" fill="#FFD96E"/>
<path d="M30.6211 48.5801H31.6775V49.6365H30.6211V48.5801Z" fill="black"/>
<path d="M30.6211 46.4668H31.6775V47.5232H30.6211V46.4668Z" fill="black"/>
<path d="M50.1653 19H40.6573C39.7836 19 39.0726 19.711 39.0726 20.5847V29.0363C39.0726 29.91 39.7836 30.621 40.6573 30.621H41.1992C40.8638 31.0636 40.6573 31.6087 40.6573 32.2056V32.8311C40.044 33.0497 39.6008 33.6308 39.6008 34.3185V35.5562C39.6008 36.1309 39.7915 36.6723 40.129 37.125V41.0656L36.9523 38.2417C36.4383 37.7848 35.8187 37.4388 35.1595 37.2412L31.1492 36.0385V35.8768C31.1492 35.4067 31.4297 34.9868 31.8639 34.8072C32.2976 34.627 32.7936 34.7253 33.1269 35.0581L33.8923 35.824L36.881 32.8353L36.1172 32.0725C35.7828 31.7382 35.6845 31.24 35.8652 30.8037C36.0443 30.3716 36.4621 30.0927 36.9296 30.0927H38.0161V25.8669H36.9296C36.4616 25.8669 36.0437 25.588 35.8647 25.1554C35.6835 24.7196 35.7823 24.2215 36.1166 23.8877L36.8804 23.1249L33.8917 20.1357L33.1279 20.9C32.7941 21.2333 32.2981 21.3326 31.8618 21.1515C31.4286 20.9724 31.1492 20.5535 31.1492 20.085V19H26.9234V20.085C26.9234 20.5535 26.644 20.9724 26.2108 21.152C25.7745 21.3332 25.278 21.2344 24.9447 20.9006L24.1808 20.1357L21.1921 23.1244L21.9581 23.8903C22.2908 24.2226 22.3886 24.718 22.209 25.1528C22.0288 25.5864 21.6089 25.8669 21.1393 25.8669H20.0565V30.0927H21.1393C21.6094 30.0927 22.0294 30.3732 22.209 30.8074C22.3886 31.2416 22.2908 31.7371 21.9581 32.0694L21.1921 32.8353L24.1803 35.8235L24.9441 35.0591C25.278 34.7258 25.774 34.6265 26.2103 34.8077C26.6429 34.9873 26.9229 35.4056 26.9229 35.8747V36.0258L22.5291 37.1974C20.451 37.7515 19 39.6404 19 41.7908V51.75H35.9032V44.9258L39.4703 47.7793C40.1164 48.2959 40.9272 48.5806 41.7544 48.5806C43.7711 48.5806 45.4113 46.9405 45.4113 44.9243V38.0161C45.4113 37.7758 45.3278 37.5566 45.1921 37.3791C45.6749 36.8086 45.9395 36.0939 45.9395 35.3375V32.6166C46.2395 32.4914 46.4963 32.2733 46.6484 31.9695L47.3224 30.621H50.1653C51.039 30.621 51.75 29.91 51.75 29.0363V20.5847C51.75 19.711 51.039 19 50.1653 19ZM40.6573 34.3185C40.6573 34.0275 40.8939 33.7903 41.1855 33.7903C41.4771 33.7903 41.7137 34.0275 41.7137 34.3185V34.8468H42.7702V34.3185C42.7702 33.6308 42.327 33.0497 41.7137 32.8311V32.2056C41.7137 31.332 42.4247 30.621 43.2984 30.621H43.5002L44.1742 31.9695C44.3263 32.2733 44.5825 32.4914 44.8831 32.6161V35.337C44.8831 35.9016 44.6633 36.432 44.264 36.8313L44.1362 36.9597H41.4042L41.1216 36.6765C40.8263 36.3818 40.6573 35.9735 40.6573 35.5562V34.3185ZM32.1412 43.5567L30.2269 44.6506L31.1539 42.6804L31.9204 42.4516L32.1412 43.5567ZM27.7612 36.9597L26.1516 38.5692L25.6313 37.4636L27.5208 36.9597H27.7612ZM30.5433 36.9597L32.4143 37.5207L31.9209 38.5687L30.3114 36.9597H30.5433ZM30.6632 39.6975L31.0198 39.1624L31.4424 39.585L30.9205 40.6937L30.6632 39.6975ZM29.8101 39.0726H28.2624L27.8145 38.4001L29.0363 37.1784L30.2581 38.4001L29.8101 39.0726ZM27.0528 39.1618L27.4099 39.6969L27.1521 40.6937L26.6302 39.5844L27.0528 39.1618ZM28.3887 40.129H29.6839L30.2169 42.1891L29.0363 44.6987L27.8557 42.1902L28.3887 40.129ZM26.3154 41.3989L24.2289 40.7761L23.8248 37.9453L24.5939 37.7404L26.3154 41.3989ZM26.1522 42.4522L26.9192 42.6809L27.8462 44.6506L25.9314 43.5567L26.1522 42.4522ZM31.7577 41.3978L33.4375 37.8281L34.2303 38.0658L33.8431 40.7756L31.7577 41.3978ZM26.6154 33.8321C25.7835 33.4866 24.8337 33.6757 24.1977 34.3127L24.1808 34.3296L22.6865 32.8358L22.7055 32.8168C23.3415 32.1808 23.5301 31.2332 23.1851 30.4028C22.8407 29.573 22.0378 29.0363 21.1393 29.0363L21.1129 26.9234H21.1393C22.0378 26.9234 22.8413 26.3867 23.1851 25.5574C23.5295 24.727 23.3415 23.7794 22.7055 23.1429L22.6865 23.1244L24.1808 21.6306L24.1977 21.6475C24.8337 22.284 25.784 22.4731 26.6154 22.1282C27.4442 21.7843 27.9798 20.9824 27.9798 20.085V20.0565H30.0927V20.085C30.0927 20.9824 30.6284 21.7837 31.4571 22.1276C32.2875 22.472 33.2389 22.2835 33.8748 21.6469L33.8917 21.63L35.3856 23.1239L35.3697 23.1402C34.7321 23.7783 34.5436 24.7281 34.889 25.5606C35.2318 26.3883 36.0332 26.9234 36.9296 26.9234H36.9597V29.0363H36.9296C36.0332 29.0363 35.2318 29.5714 34.889 30.3991C34.5436 31.2316 34.7321 32.1819 35.3697 32.82L35.3856 32.8358L33.8917 34.3296L33.8733 34.3106C33.2367 33.6752 32.2886 33.4871 31.4593 33.831C30.6294 34.1754 30.0927 34.9788 30.0927 35.8768L27.9798 35.9032V35.8747C27.9798 34.9772 27.4442 34.1754 26.6154 33.8321ZM20.0565 41.7908C20.0565 40.1201 21.1832 38.6521 22.7969 38.22L23.2792 41.5954L25.1359 42.1495L24.7466 44.0971L28.5081 46.2459V50.6935H23.2258V43.6079L22.0146 42.3967L21.2677 43.1436L22.1694 44.0453V50.6935H20.0565V41.7908ZM44.3548 44.9243C44.3548 46.3579 43.1885 47.5242 41.7544 47.5242C41.1665 47.5242 40.5896 47.3219 40.1306 46.9542L36.1658 43.7828L36.8049 43.1436L36.058 42.3967L34.8468 43.6079V50.6935H29.5645V46.2459L33.3265 44.096L32.9372 42.1484L34.794 41.5949L35.2509 38.398C35.6153 38.5549 35.956 38.7694 36.2513 39.0319L40.129 42.4791V44.8831H41.1855V38.0161H44.3548V44.9243ZM50.6935 29.0363C50.6935 29.3273 50.4569 29.5645 50.1653 29.5645H46.6695L45.7034 31.4968C45.5919 31.7202 45.2306 31.7197 45.1197 31.4968L44.1531 29.5645H40.6573C40.3657 29.5645 40.129 29.3273 40.129 29.0363V20.5847C40.129 20.2936 40.3657 20.0565 40.6573 20.0565H50.1653C50.4569 20.0565 50.6935 20.2936 50.6935 20.5847V29.0363Z" fill="black"/>
<path d="M47.2601 21.1133C46.6078 21.1133 45.9945 21.3674 45.5339 21.8285L45.4114 21.951L45.2888 21.8285C44.8282 21.3674 44.2149 21.1133 43.5626 21.1133C42.9113 21.1133 42.2975 21.3668 41.8363 21.8285C41.4169 22.2479 41.1855 22.8062 41.1855 23.4V23.4903C41.1855 24.1421 41.4391 24.7549 41.9008 25.2165L45.4114 28.7271L48.9219 25.2165C49.3836 24.7549 49.6372 24.1421 49.6372 23.4903V23.4C49.6372 22.8062 49.4058 22.2479 48.9864 21.8285C48.5258 21.3674 47.9125 21.1133 47.2601 21.1133ZM48.5807 23.4903C48.5807 23.8601 48.437 24.2076 48.175 24.4696L45.4114 27.2333L42.6477 24.4696C42.3857 24.2076 42.242 23.8601 42.242 23.4903V23.4C42.242 23.0883 42.363 22.7957 42.5832 22.5754C42.8452 22.3139 43.1928 22.1697 43.5626 22.1697C43.9323 22.1697 44.2799 22.3134 44.5419 22.5754L45.4114 23.4449L46.2808 22.5754C46.8038 22.0525 47.716 22.0525 48.2389 22.5754C48.4597 22.7957 48.5807 23.0883 48.5807 23.4V23.4903Z" fill="black"/>
<path d="M33.7913 27.9806C33.7913 25.3595 31.6588 23.2266 29.0372 23.2266C26.4157 23.2266 24.2832 25.3595 24.2832 27.9806C24.2832 30.6017 26.4157 32.7346 29.0372 32.7346C31.6588 32.7346 33.7913 30.6017 33.7913 27.9806ZM29.0372 27.4524C29.3288 27.4524 29.5655 27.6895 29.5655 27.9806C29.5655 28.2716 29.3288 28.5088 29.0372 28.5088C28.7457 28.5088 28.509 28.2716 28.509 27.9806C28.509 27.6895 28.7457 27.4524 29.0372 27.4524ZM29.5655 31.6359V29.4681C30.0129 29.3086 30.3652 28.9562 30.5247 28.5088H32.6926C32.4596 30.1247 31.1813 31.403 29.5655 31.6359ZM32.6926 27.4524H30.5247C30.3652 27.005 30.0129 26.6526 29.5655 26.4931V24.3253C31.1813 24.5582 32.4596 25.8365 32.6926 27.4524ZM28.509 24.3253V26.4931C28.0616 26.6526 27.7093 27.005 27.5498 27.4524H25.3819C25.6149 25.8365 26.8932 24.5582 28.509 24.3253ZM25.3819 28.5088H27.5498C27.7093 28.9562 28.0616 29.3086 28.509 29.4681V31.6359C26.8932 31.403 25.6149 30.1247 25.3819 28.5088Z" fill="black"/>
<path d="M29.036 22.1697C29.3278 22.1697 29.5643 21.9332 29.5643 21.6415C29.5643 21.3498 29.3278 21.1133 29.036 21.1133C28.7443 21.1133 28.5078 21.3498 28.5078 21.6415C28.5078 21.9332 28.7443 22.1697 29.036 22.1697Z" fill="black"/>
<path d="M24.5537 24.0252C24.689 24.0252 24.8242 23.9734 24.9272 23.8704C25.1337 23.6639 25.1337 23.3295 24.9272 23.1235C24.8242 23.0205 24.689 22.9688 24.5537 22.9688C24.4185 22.9688 24.2833 23.0205 24.1803 23.1235C23.9738 23.3301 23.9738 23.6644 24.1803 23.8704C24.2833 23.9734 24.4185 24.0252 24.5537 24.0252Z" fill="black"/>
<path d="M22.6981 28.5076C22.9899 28.5076 23.2264 28.2711 23.2264 27.9794C23.2264 27.6877 22.9899 27.4512 22.6981 27.4512C22.4064 27.4512 22.1699 27.6877 22.1699 27.9794C22.1699 28.2711 22.4064 28.5076 22.6981 28.5076Z" fill="black"/>
<path d="M24.5537 31.9336C24.4185 31.9336 24.2833 31.9854 24.1803 32.0884C23.9738 32.2949 23.9738 32.6293 24.1803 32.8353C24.2833 32.9383 24.4185 32.99 24.5537 32.99C24.689 32.99 24.8242 32.9383 24.9272 32.8353C25.1337 32.6287 25.1337 32.2944 24.9272 32.0884C24.8242 31.9854 24.689 31.9336 24.5537 31.9336Z" fill="black"/>
<path d="M29.036 34.8475C29.3278 34.8475 29.5643 34.611 29.5643 34.3192C29.5643 34.0275 29.3278 33.791 29.036 33.791C28.7443 33.791 28.5078 34.0275 28.5078 34.3192C28.5078 34.611 28.7443 34.8475 29.036 34.8475Z" fill="black"/>
<path d="M33.5186 31.9336C33.3834 31.9336 33.2481 31.9854 33.1451 32.0884C32.9386 32.2949 32.9386 32.6293 33.1451 32.8353C33.2481 32.9383 33.3834 32.99 33.5186 32.99C33.6538 32.99 33.789 32.9383 33.892 32.8353C34.0986 32.6287 34.0986 32.2944 33.892 32.0884C33.789 31.9854 33.6538 31.9336 33.5186 31.9336Z" fill="black"/>
<path d="M35.3739 28.5076C35.6657 28.5076 35.9022 28.2711 35.9022 27.9794C35.9022 27.6877 35.6657 27.4512 35.3739 27.4512C35.0822 27.4512 34.8457 27.6877 34.8457 27.9794C34.8457 28.2711 35.0822 28.5076 35.3739 28.5076Z" fill="black"/>
<path d="M33.5186 24.0252C33.6538 24.0252 33.789 23.9734 33.892 23.8704C34.0986 23.6639 34.0986 23.3295 33.892 23.1235C33.789 23.0205 33.6538 22.9688 33.5186 22.9688C33.3834 22.9688 33.2481 23.0205 33.1451 23.1235C32.9386 23.3301 32.9386 23.6644 33.1451 23.8704C33.2481 23.9734 33.3834 24.0252 33.5186 24.0252Z" fill="black"/>
<path d="M46.4668 48.5801H47.5232V49.6365H46.4668V48.5801Z" fill="black"/>
<path d="M48.5801 48.5801H49.6365V49.6365H48.5801V48.5801Z" fill="black"/>
<path d="M50.6934 48.5801H51.7498V49.6365H50.6934V48.5801Z" fill="black"/>
</svg>

