<svg width="30" height="30" viewBox="0 0 30 30" fill="none" xmlns="http://www.w3.org/2000/svg">
<path fill-rule="evenodd" clip-rule="evenodd" d="M0 15C0 6.72078 6.72078 0 15.0325 0C23.2792 0 30.0325 6.72078 30 15C30 23.2792 23.2792 30 15 30C6.72078 30 0 23.2792 0 15ZM24.1234 22.6623L24.6104 21.9805C26.1364 19.9351 26.9156 17.5325 26.9156 15C26.9156 8.44156 21.5909 3.11688 15.0325 3.11688C8.44156 3.11688 3.11688 8.44156 3.11688 15C3.11688 17.5 3.8961 19.9351 5.38961 21.9805L5.87662 22.6623L6.26623 21.9156C7.04545 20.3571 8.40909 19.4481 9.9026 19.4481H20.0974C21.5909 19.4481 22.9545 20.3896 23.7338 21.9156L24.1234 22.6623ZM10.2284 12.1404C10.2284 9.51055 12.3712 7.36769 15.0011 7.36769C17.6635 7.36769 19.7738 9.51055 19.7738 12.1404C19.7738 14.7703 17.631 16.9131 15.0011 16.9131C12.3712 16.9131 10.2284 14.7703 10.2284 12.1404Z" fill="#0071BC"/>
</svg>
