<svg
                width="90"
                height="107"
                viewBox="0 0 90 107"
                fill="none"
                xmlns="http://www.w3.org/2000/svg"
              >
                <path
                  d="M23.7445 95.788H24.8885C25.5212 95.788 26.0022 95.632 26.3315 95.32C26.6695 95.008 26.8385 94.5963 26.8385 94.085C26.8385 93.5477 26.6695 93.123 26.3315 92.811C25.9935 92.499 25.5039 92.343 24.8625 92.343H23.7445V95.788ZM22.4055 91.238H24.9145C25.9199 91.238 26.7172 91.5067 27.3065 92.044C27.8959 92.5727 28.1905 93.253 28.1905 94.085C28.1905 94.917 27.8915 95.593 27.2935 96.113C26.7042 96.633 25.9372 96.893 24.9925 96.893H23.7445V100H22.4055V91.238ZM29.553 100V90.809H30.84V100H29.553ZM36.7825 93.409H38.0565V100H36.7825V98.869C36.4359 99.675 35.7512 100.078 34.7285 100.078C34.0785 100.078 33.5629 99.8873 33.1815 99.506C32.8002 99.116 32.6095 98.583 32.6095 97.907V93.409H33.8965V97.595C33.8965 98.0457 34.0049 98.3923 34.2215 98.635C34.4469 98.869 34.7545 98.986 35.1445 98.986C35.6385 98.986 36.0329 98.8127 36.3275 98.466C36.6309 98.1193 36.7825 97.6297 36.7825 96.997V93.409ZM41.1217 93.409V94.462C41.4944 93.6993 42.114 93.318 42.9807 93.318C43.9687 93.318 44.6014 93.7427 44.8787 94.592C45.0607 94.1847 45.325 93.8727 45.6717 93.656C46.0184 93.4307 46.4084 93.318 46.8417 93.318C47.5177 93.318 48.029 93.5173 48.3757 93.916C48.731 94.3147 48.9087 94.865 48.9087 95.567V100H47.6347V95.84C47.6347 94.8953 47.2534 94.423 46.4907 94.423C46.1094 94.423 45.767 94.592 45.4637 94.93C45.169 95.268 45.0217 95.7663 45.0217 96.425V100H43.7477V95.84C43.7477 94.8953 43.362 94.423 42.5907 94.423C42.218 94.423 41.88 94.592 41.5767 94.93C41.2734 95.268 41.1217 95.7663 41.1217 96.425V100H39.8477V93.409H41.1217ZM53.7457 98.973C54.231 98.973 54.6384 98.7693 54.9677 98.362C55.297 97.946 55.4617 97.413 55.4617 96.763C55.4617 96.0177 55.297 95.4457 54.9677 95.047C54.6384 94.6397 54.218 94.436 53.7067 94.436C53.256 94.436 52.8487 94.618 52.4847 94.982C52.1294 95.346 51.9517 95.905 51.9517 96.659C51.9517 97.439 52.125 98.0197 52.4717 98.401C52.8184 98.7823 53.243 98.973 53.7457 98.973ZM51.9517 90.809V94.41C52.4197 93.682 53.0827 93.318 53.9407 93.318C54.7727 93.318 55.453 93.63 55.9817 94.254C56.5104 94.878 56.7747 95.7057 56.7747 96.737C56.7747 97.6643 56.5234 98.4573 56.0207 99.116C55.518 99.766 54.829 100.091 53.9537 100.091C53.0784 100.091 52.411 99.727 51.9517 98.999V100H50.6647V90.809H51.9517ZM62.3001 96.23V95.996C62.2828 95.502 62.1484 95.112 61.8971 94.826C61.6458 94.5313 61.2861 94.384 60.8181 94.384C60.3848 94.384 60.0121 94.5443 59.7001 94.865C59.3881 95.177 59.1931 95.632 59.1151 96.23H62.3001ZM63.1191 98.505V99.649C62.6338 99.9263 61.9924 100.065 61.1951 100.065C60.1724 100.065 59.3578 99.7573 58.7511 99.142C58.1444 98.5267 57.8411 97.7207 57.8411 96.724C57.8411 95.6667 58.1184 94.839 58.6731 94.241C59.2278 93.6343 59.9341 93.331 60.7921 93.331C61.6328 93.331 62.3001 93.5953 62.7941 94.124C63.2881 94.644 63.5351 95.398 63.5351 96.386C63.5351 96.6547 63.5091 96.9363 63.4571 97.231H59.1281C59.2148 97.803 59.4574 98.2407 59.8561 98.544C60.2548 98.8473 60.7574 98.999 61.3641 98.999C62.0661 98.999 62.6511 98.8343 63.1191 98.505ZM66.3092 93.409V94.566C66.6299 93.7513 67.2062 93.344 68.0382 93.344C68.1595 93.344 68.2939 93.357 68.4412 93.383V94.631C68.2592 94.553 68.0555 94.514 67.8302 94.514C67.3882 94.514 67.0242 94.709 66.7382 95.099C66.4522 95.489 66.3092 95.9527 66.3092 96.49V100H65.0352V93.409H66.3092Z"
                  fill="#3A4A4E"
                />
                <g filter="url(#filter0_d)">
                  <rect x="10" y="6" width="70" height="70" rx="7" fill="#FFD96E" />
                </g>
                <path
                  d="M58.2792 40.754L52.4948 43.2923L50.7037 40.0697C49.9958 38.7955 48.4137 38.2977 47.1024 38.9371L38.8202 42.9777V56.5719H32.3594V29.5156H38.8202V35.9786L44.7845 33.2414C49.1244 31.2197 54.4417 33.078 56.5791 37.3561L58.2792 40.754Z"
                  fill="#CED3DD"
                />
                <path
                  d="M51.2793 43.825L59.8495 40.0645L60.8408 42.1603C61.361 43.2602 60.873 44.5727 59.7605 45.0655L55.1136 47.1241C54.0218 47.6077 52.7445 47.116 52.2588 46.0252L51.2793 43.825Z"
                  fill="#868EAF"
                />
                <path
                  d="M51.2793 43.825L59.8495 40.0645L60.8408 42.1603C61.361 43.2602 60.873 44.5727 59.7605 45.0655L55.1136 47.1241C54.0218 47.6077 52.7445 47.116 52.2588 46.0252L51.2793 43.825Z"
                  fill="#88E0F4"
                />
                <path
                  d="M39.7187 56.5723H31.6135C30.6059 56.5723 29.7891 57.3891 29.7891 58.3967V60.2109H41.5431V58.3967C41.5431 57.3891 40.7263 56.5723 39.7187 56.5723Z"
                  fill="#88E0F4"
                />
                <path
                  d="M60.4775 55.3584L57.9316 50.4297C57.9316 50.4297 55.297 55.5205 55.2584 55.6048C55.0879 55.977 54.9922 56.3906 54.9922 56.8268C54.9922 58.4502 56.3082 59.7662 57.9316 59.7662C59.5549 59.7662 60.8709 58.4502 60.8709 56.8268C60.871 56.2917 60.7106 55.817 60.4775 55.3584Z"
                  fill="#A0C8FF"
                />
                <path
                  d="M54.6202 21.7891C54.6202 21.7891 52.855 25.2571 50.1159 25.2571H41.1642C40.4826 25.2571 39.8752 25.6884 39.6517 26.3328L38.8209 29.5141H32.3594V24.1505C32.3594 22.9581 33.2627 21.9526 34.4501 21.8427C34.8166 21.8087 35.1981 21.7891 35.5905 21.7891H54.6202Z"
                  fill="#88E0F4"
                />
                <path
                  d="M61.178 54.9966L58.632 50.068C58.4965 49.8055 58.2259 49.6407 57.9306 49.6406C57.9305 49.6406 57.9304 49.6406 57.9303 49.6406C57.6352 49.6406 57.3645 49.8052 57.2289 50.0674C55.4749 53.4566 54.5699 55.2094 54.5391 55.2768C54.3148 55.7664 54.2012 56.2881 54.2012 56.8275C54.2012 58.8838 55.8741 60.5567 57.9303 60.5567C59.9866 60.5567 61.6595 58.8838 61.6595 56.8275C61.6595 56.225 61.5073 55.6446 61.1803 55.0012C61.1796 54.9998 61.1787 54.9982 61.178 54.9966ZM57.9303 58.9772C56.7451 58.9772 55.7808 58.0129 55.7808 56.8276C55.7808 56.5201 55.8448 56.2227 55.9712 55.9436C56.0551 55.7763 57.0242 53.901 57.9298 52.1504L59.7733 55.7191C59.9854 56.137 60.08 56.4791 60.08 56.8276C60.0799 58.0128 59.1157 58.9772 57.9303 58.9772Z"
                  fill="black"
                />
                <path
                  d="M55.4329 47.8466L60.0799 45.788C60.8142 45.4627 61.3727 44.8689 61.6527 44.1162C61.9325 43.3634 61.8976 42.5491 61.5541 41.823L60.5629 39.7271C60.3801 39.3405 59.9231 39.1698 59.5315 39.3416L58.6492 39.7288L57.2853 37.0028C54.9609 32.3507 49.1756 30.324 44.4547 32.5233L39.6097 34.7468V29.618L40.4062 26.5682C40.5258 26.2558 40.827 26.0477 41.1636 26.0477H50.1153C53.302 26.0477 55.2423 22.3073 55.3234 22.148C55.448 21.9032 55.4365 21.6112 55.2929 21.377C55.1494 21.1427 54.8944 21 54.6196 21H35.5899C35.1929 21 34.7847 21.0191 34.3766 21.057C32.7761 21.2052 31.569 22.5355 31.569 24.1513V29.515C31.569 29.5163 31.5691 29.5176 31.5692 29.5189V39.9499C31.5692 40.3861 31.9228 40.7398 32.3591 40.7398C32.7952 40.7398 33.1489 40.3862 33.1489 39.9499V30.305H38.0301V35.9782C38.0301 36.2473 38.167 36.4978 38.3935 36.643C38.62 36.7884 38.9049 36.8083 39.1493 36.696L45.1176 33.957C49.0747 32.1135 53.9235 33.8088 55.8724 37.7091L57.2008 40.3641L52.8355 42.2797L51.3937 39.6858C50.4819 38.0443 48.4448 37.4034 46.7559 38.2269L38.4736 42.2674C38.2023 42.3998 38.0301 42.6753 38.0301 42.9773V55.7816H33.1488V46.8929C33.1488 46.4567 32.7952 46.103 32.359 46.103C31.9228 46.103 31.5691 46.4566 31.5691 46.8929V55.7834C30.1466 55.8181 29 56.9852 29 58.4159V60.2102C29 60.6463 29.3536 61 29.7898 61H41.5439C41.9801 61 42.3337 60.6464 42.3337 60.2102V58.4159C42.3337 56.9634 41.152 55.7816 39.6995 55.7816H39.6096V43.4707L47.4483 39.6466C48.3824 39.1912 49.5088 39.5453 50.013 40.453L51.3826 42.9172L50.9613 43.102C50.7689 43.1865 50.618 43.3442 50.5421 43.5402C50.4663 43.7363 50.4717 43.9545 50.5572 44.1465L51.5366 46.3466C52.0258 47.4452 53.1087 48.0994 54.2412 48.0994C54.6402 48.0995 55.0455 48.0182 55.4329 47.8466ZM33.1487 24.1513C33.1487 23.3565 33.7393 22.7024 34.5224 22.6298C34.8822 22.5965 35.2414 22.5796 35.59 22.5796H53.1516C52.4755 23.4395 51.3984 24.468 50.1154 24.468H41.1637C40.146 24.468 39.2383 25.1137 38.905 26.0748C38.8982 26.0943 38.8923 26.114 38.887 26.134L38.2103 28.7251H33.1487V24.1513ZM40.7541 58.416V59.4204H30.5797V58.416C30.5797 57.8345 31.0528 57.3614 31.6343 57.3614H39.6995C40.281 57.3613 40.7541 57.8345 40.7541 58.416ZM52.9798 45.7043L52.3232 44.2295L59.4631 41.0966L60.1262 42.4984C60.286 42.8362 60.3023 43.2152 60.172 43.5656C60.0418 43.9159 59.7818 44.1923 59.44 44.3437L54.793 46.4023C54.101 46.7089 53.2876 46.3958 52.9798 45.7043Z"
                  fill="black"
                />
                <path
                  d="M31.6292 43.6604C31.8945 44.3079 32.8451 44.2911 33.0949 43.6424C33.3589 42.9571 32.5823 42.3038 31.9524 42.681C31.6214 42.8792 31.4809 43.3043 31.6292 43.6604Z"
                  fill="black"
                />
                <defs>
                  <filter
                    id="filter0_d"
                    x="0"
                    y="0"
                    width="90"
                    height="90"
                    filterUnits="userSpaceOnUse"
                    color-interpolation-filters="sRGB"
                  >
                    <feFlood flood-opacity="0" result="BackgroundImageFix" />
                    <feColorMatrix
                      in="SourceAlpha"
                      type="matrix"
                      values="0 0 0 0 0 0 0 0 0 0 0 0 0 0 0 0 0 0 127 0"
                    />
                    <feOffset dy="4" />
                    <feGaussianBlur stdDeviation="5" />
                    <feColorMatrix
                      type="matrix"
                      values="0 0 0 0 0 0 0 0 0 0 0 0 0 0 0 0 0 0 0.08 0"
                    />
                    <feBlend mode="normal" in2="BackgroundImageFix" result="effect1_dropShadow" />
                    <feBlend
                      mode="normal"
                      in="SourceGraphic"
                      in2="effect1_dropShadow"
                      result="shape"
                    />
                  </filter>
                </defs>
              </svg>