<svg width="70" height="101" viewBox="0 0 70 101" fill="none" xmlns="http://www.w3.org/2000/svg">
<path d="M7.832 94L8.508 85.238H10.094L11.264 88.436C11.472 88.982 11.68 89.5627 11.888 90.178C12.096 90.7847 12.252 91.257 12.356 91.595L12.525 92.102C12.9237 90.9233 13.3613 89.7013 13.838 88.436L15.06 85.238H16.646L17.452 94H16.126L15.814 90.568L15.541 87.058C15.151 88.1587 14.7263 89.3287 14.267 90.568L13.045 93.831H11.992L10.809 90.568L9.626 87.11C9.626 87.4913 9.55667 88.644 9.418 90.568L9.158 94H7.832ZM23.2781 90.23V89.996C23.2608 89.502 23.1265 89.112 22.8751 88.826C22.6238 88.5313 22.2641 88.384 21.7961 88.384C21.3628 88.384 20.9901 88.5443 20.6781 88.865C20.3661 89.177 20.1711 89.632 20.0931 90.23H23.2781ZM24.0971 92.505V93.649C23.6118 93.9263 22.9705 94.065 22.1731 94.065C21.1505 94.065 20.3358 93.7573 19.7291 93.142C19.1225 92.5267 18.8191 91.7207 18.8191 90.724C18.8191 89.6667 19.0965 88.839 19.6511 88.241C20.2058 87.6343 20.9121 87.331 21.7701 87.331C22.6108 87.331 23.2781 87.5953 23.7721 88.124C24.2661 88.644 24.5131 89.398 24.5131 90.386C24.5131 90.6547 24.4871 90.9363 24.4351 91.231H20.1061C20.1928 91.803 20.4355 92.2407 20.8341 92.544C21.2328 92.8473 21.7355 92.999 22.3421 92.999C23.0441 92.999 23.6291 92.8343 24.0971 92.505ZM26.9622 90.737C26.9795 91.4043 27.1832 91.9547 27.5732 92.388C27.9632 92.8127 28.5092 93.025 29.2112 93.025C29.7312 93.025 30.2165 92.882 30.6672 92.596V93.74C30.2425 94 29.7009 94.13 29.0422 94.13C28.0109 94.13 27.1875 93.805 26.5722 93.155C25.9569 92.505 25.6492 91.6947 25.6492 90.724C25.6492 89.7793 25.9569 88.9733 26.5722 88.306C27.1962 87.63 28.0369 87.292 29.0942 87.292C29.6662 87.292 30.1905 87.4133 30.6672 87.656V88.826C30.2425 88.5573 29.7615 88.423 29.2242 88.423C28.5395 88.423 27.9892 88.6397 27.5732 89.073C27.1659 89.5063 26.9622 90.061 26.9622 90.737ZM33.4064 84.809V88.54C33.779 87.7253 34.4594 87.318 35.4474 87.318C36.0887 87.318 36.6044 87.5173 36.9944 87.916C37.3844 88.3147 37.5794 88.8693 37.5794 89.58V94H36.3054V89.84C36.3054 89.3893 36.1884 89.0427 35.9544 88.8C35.729 88.5487 35.43 88.423 35.0574 88.423C34.624 88.423 34.2384 88.5877 33.9004 88.917C33.571 89.2463 33.4064 89.749 33.4064 90.425V94H32.1324V84.809H33.4064ZM42.7635 91.062H41.7755C41.2902 91.062 40.9218 91.1573 40.6705 91.348C40.4278 91.5387 40.3065 91.7813 40.3065 92.076C40.3065 92.3793 40.4018 92.6177 40.5925 92.791C40.7832 92.9643 41.0605 93.051 41.4245 93.051C41.8405 93.051 42.1655 92.9383 42.3995 92.713C42.6422 92.479 42.7635 92.1757 42.7635 91.803V91.062ZM39.4485 88.982V87.747C39.9598 87.4523 40.6358 87.305 41.4765 87.305C43.2012 87.305 44.0635 88.1413 44.0635 89.814V94H42.8025V93.22C42.4645 93.7747 41.8708 94.052 41.0215 94.052C40.3975 94.052 39.8948 93.8743 39.5135 93.519C39.1408 93.155 38.9545 92.6957 38.9545 92.141C38.9545 91.5083 39.1928 91.0187 39.6695 90.672C40.1462 90.3167 40.8135 90.139 41.6715 90.139H42.7635V89.762C42.7635 89.3113 42.6552 88.9733 42.4385 88.748C42.2218 88.514 41.8622 88.397 41.3595 88.397C40.6575 88.397 40.0205 88.592 39.4485 88.982ZM47.0538 87.409V88.54C47.4438 87.7253 48.1285 87.318 49.1078 87.318C49.7578 87.318 50.2735 87.5173 50.6548 87.916C51.0361 88.3147 51.2268 88.8563 51.2268 89.541V94H49.9528V89.84C49.9528 89.3807 49.8358 89.0297 49.6018 88.787C49.3765 88.5443 49.0731 88.423 48.6918 88.423C48.2411 88.423 47.8555 88.6007 47.5348 88.956C47.2141 89.3027 47.0538 89.7923 47.0538 90.425V94H45.7798V87.409H47.0538ZM52.992 94V87.409H54.279V94H52.992ZM53.057 85.966C52.9096 85.81 52.836 85.6193 52.836 85.394C52.836 85.1687 52.9096 84.978 53.057 84.822C53.213 84.666 53.4036 84.588 53.629 84.588C53.8543 84.588 54.045 84.666 54.201 84.822C54.357 84.978 54.435 85.1687 54.435 85.394C54.435 85.6107 54.357 85.797 54.201 85.953C54.045 86.109 53.8543 86.187 53.629 86.187C53.4036 86.187 53.213 86.1133 53.057 85.966ZM57.0755 90.737C57.0928 91.4043 57.2965 91.9547 57.6865 92.388C58.0765 92.8127 58.6225 93.025 59.3245 93.025C59.8445 93.025 60.3298 92.882 60.7805 92.596V93.74C60.3558 94 59.8142 94.13 59.1555 94.13C58.1242 94.13 57.3008 93.805 56.6855 93.155C56.0702 92.505 55.7625 91.6947 55.7625 90.724C55.7625 89.7793 56.0702 88.9733 56.6855 88.306C57.3095 87.63 58.1502 87.292 59.2075 87.292C59.7795 87.292 60.3038 87.4133 60.7805 87.656V88.826C60.3558 88.5573 59.8748 88.423 59.3375 88.423C58.6528 88.423 58.1025 88.6397 57.6865 89.073C57.2792 89.5063 57.0755 90.061 57.0755 90.737Z" fill="#3A4A4E"/>
<rect width="70" height="70" rx="7" fill="#FFD0C3"/>
<path d="M32.197 39.1992V40.5502C32.197 41.0016 31.9256 41.4086 31.5089 41.5823L27.0455 43.4421C26.1025 43.835 25.4883 44.903 25.4883 45.9245V51.3074H44.4964V45.9245C44.4964 44.903 43.8822 43.835 42.9392 43.4421L38.4758 41.5823C38.0591 41.4087 37.7877 41.0015 37.7877 40.5502V39.1992H32.197Z" fill="#FEBBA0"/>
<path d="M42.9392 43.4423L38.4757 41.5825C38.1305 41.4387 37.8856 41.1344 37.8116 40.7777C37.2219 41.7112 36.1815 42.3318 34.9957 42.3318C33.8064 42.3318 32.7634 41.7077 32.1747 40.7695C32.1027 41.1297 31.8568 41.4375 31.5089 41.5825L27.0455 43.4423C26.1025 43.8352 25.4883 44.9032 25.4883 45.9247V51.3076H44.4964V45.9246C44.4964 44.9032 43.8821 43.8352 42.9392 43.4423Z" fill="#FFD96E"/>
<path d="M32.1742 40.7695C32.1022 41.1297 31.8563 41.4375 31.5084 41.5825L31.4004 41.6275L32.6949 45.2535L34.9952 42.3318C33.8059 42.3318 32.7629 41.7077 32.1742 40.7695Z" fill="#FFD96E"/>
<path d="M37.8171 40.7695C37.8892 41.1297 38.135 41.4375 38.4829 41.5825L38.5909 41.6275L37.2964 45.2535L34.9961 42.3318C36.1853 42.3318 37.2283 41.7077 37.8171 40.7695Z" fill="#FFD96E"/>
<path d="M41.2326 31.2368V29.216C41.2326 25.7754 38.4434 22.9863 35.0029 22.9863C31.5624 22.9863 28.7733 25.7755 28.7733 29.216H28.7488V31.2368C27.8909 31.2368 27.1953 31.9323 27.1953 32.7903C27.1953 33.6483 27.8909 34.3439 28.7488 34.3439V35.5036C28.8236 36.4818 29.3005 37.3526 30.0228 37.8295L33.7782 39.9764C34.5323 40.4745 35.4492 40.4745 36.2034 39.9764L39.9475 37.8295C40.6697 37.3526 41.1578 36.4818 41.2326 35.5036V34.3439C42.0906 34.3439 42.7862 33.6483 42.7862 32.7903C42.786 31.9322 42.0905 31.2368 41.2326 31.2368Z" fill="#FEBBA0"/>
<path d="M42.6316 27.5206H42.204C42.0885 25.7112 41.3131 24.0274 40.0044 22.7575C39.0386 21.8203 37.8556 21.1809 36.5727 20.8857V19.8618C36.5727 19.7084 36.4621 19.584 36.3257 19.584H33.6584C33.522 19.584 33.4114 19.7084 33.4114 19.8618V20.8567C32.0778 21.1376 30.8467 21.7884 29.8479 22.7575C28.5393 24.0274 27.7638 25.7112 27.6483 27.5206H27.3524C27.216 27.5206 27.1055 27.6311 27.1055 27.7675V29.1506C27.1055 29.287 27.216 29.3975 27.3524 29.3975H42.6317C42.7681 29.3975 42.8787 29.287 42.8787 29.1506V27.7675C42.8787 27.6311 42.7681 27.5206 42.6316 27.5206Z" fill="#FFD96E"/>
<path d="M22.4168 35.9707C20.3626 35.9707 18.6973 37.6357 18.6973 39.6898C18.6973 41.0913 19.5028 42.3497 20.6474 42.9839H20.889H24.2009C25.338 42.3471 26.1363 41.0855 26.1363 39.6898C26.1363 37.6357 24.471 35.9707 22.4168 35.9707Z" fill="#FFD96E"/>
<path d="M24.2012 42.9824V44.0685C24.2012 45.0499 23.4029 45.8457 22.418 45.8457C21.4331 45.8457 20.6348 45.0499 20.6348 44.0685V42.9824H24.2012Z" fill="#3F5968"/>
<path d="M21.7787 24.4828L20.8334 28.6512C20.7784 28.8941 20.8531 28.928 20.9995 28.7266L24.8704 23.4018C25.0167 23.2004 24.9328 23.0357 24.6837 23.0357H22.6468L23.2113 18.8989C23.2448 18.6522 23.1648 18.6235 23.0333 18.8349L19.76 24.0984C19.6286 24.3098 19.7247 24.4828 19.9738 24.4828H21.7787Z" fill="#FF504E"/>
<path d="M49.0396 21.6934H48.3114H47.5832L46.8203 24.3115L48.3114 25.7332L49.8025 24.3115L49.0396 21.6934Z" fill="#ECEBED"/>
<path d="M49.8424 31.3359V37.5815C49.8424 38.4244 49.1529 39.1141 48.3099 39.1141C47.467 39.1141 46.7773 38.4244 46.7773 37.5815V31.3359H49.8424Z" fill="#314967"/>
<path d="M18.7027 52.0004H18.6936C18.3106 52.0004 18 51.6899 18 51.3068C18 50.9238 18.3106 50.6133 18.6936 50.6133H18.7027C19.0856 50.6133 19.3962 50.9238 19.3962 51.3068C19.3962 51.6899 19.0856 52.0004 18.7027 52.0004Z" fill="black"/>
<path d="M51.2905 52.0004H51.2814C50.8985 52.0004 50.5879 51.6899 50.5879 51.3068C50.5879 50.9238 50.8985 50.6133 51.2814 50.6133H51.2905C51.6735 50.6133 51.9841 50.9238 51.9841 51.3068C51.984 51.6899 51.6735 52.0004 51.2905 52.0004Z" fill="black"/>
<path d="M34.9943 37.4281C34.2382 37.4281 33.623 36.8129 33.623 36.0568C33.623 35.6738 33.9336 35.3633 34.3166 35.3633H35.672C36.055 35.3633 36.3656 35.6738 36.3656 36.0568C36.3655 36.8129 35.7504 37.4281 34.9943 37.4281Z" fill="black"/>
<path d="M37.6851 49.018H37.676C37.293 49.018 36.9824 48.7074 36.9824 48.3244C36.9824 47.9414 37.293 47.6309 37.676 47.6309H37.6851C38.068 47.6309 38.3786 47.9414 38.3786 48.3244C38.3786 48.7074 38.068 49.018 37.6851 49.018Z" fill="black"/>
<path d="M42.5319 49.018H39.9299C39.5469 49.018 39.2363 48.7074 39.2363 48.3244C39.2363 47.9414 39.5469 47.6309 39.9299 47.6309H42.5319C42.9149 47.6309 43.2255 47.9414 43.2255 48.3244C43.2255 48.7074 42.9149 49.018 42.5319 49.018Z" fill="black"/>
<path d="M32.2905 49.018H32.2814C31.8985 49.018 31.5879 48.7074 31.5879 48.3244C31.5879 47.9414 31.8985 47.6309 32.2814 47.6309H32.2905C32.6735 47.6309 32.9841 47.9414 32.9841 48.3244C32.9841 48.7074 32.6735 49.018 32.2905 49.018Z" fill="black"/>
<path d="M30.0378 49.018H27.4357C27.0528 49.018 26.7422 48.7074 26.7422 48.3244C26.7422 47.9414 27.0528 47.6309 27.4357 47.6309H30.0378C30.4207 47.6309 30.7313 47.9414 30.7313 48.3244C30.7313 48.7074 30.4208 49.018 30.0378 49.018Z" fill="black"/>
<path d="M22.4201 34.8005C22.0371 34.8005 21.7266 34.49 21.7266 34.107V33.1701C21.7266 32.7871 22.0371 32.4766 22.4201 32.4766C22.8031 32.4766 23.1137 32.7871 23.1137 33.1701V34.107C23.1137 34.49 22.8032 34.8005 22.4201 34.8005Z" fill="black"/>
<path d="M19.5145 35.909C19.337 35.909 19.1596 35.8413 19.0242 35.7059L18.3614 35.0435C18.0905 34.7727 18.0905 34.3336 18.3612 34.0626C18.6319 33.7917 19.0711 33.7916 19.342 34.0624L20.0048 34.7249C20.2757 34.9957 20.2758 35.4348 20.005 35.7058C19.8696 35.8412 19.6919 35.909 19.5145 35.909Z" fill="black"/>
<path d="M25.3752 35.8582C25.1976 35.8582 25.0201 35.7905 24.8847 35.655C24.6139 35.3842 24.6139 34.9451 24.8848 34.6742L25.5474 34.0117C25.8182 33.7409 26.2574 33.7409 26.5282 34.0117C26.7991 34.2825 26.7991 34.7216 26.5282 34.9925L25.8656 35.655C25.7301 35.7905 25.5526 35.8582 25.3752 35.8582Z" fill="black"/>
<path d="M26.83 39.69C26.83 37.2568 24.8503 35.2773 22.4169 35.2773C19.9836 35.2773 18.0039 37.2569 18.0039 39.69C18.0039 41.1377 18.7522 42.5343 19.941 43.3599V44.0698C19.941 45.4322 21.0521 46.5406 22.4178 46.5406C23.7834 46.5406 24.8946 45.4322 24.8946 44.0698V43.3666C26.0818 42.5404 26.83 41.1399 26.83 39.69ZM22.4191 40.9866L22.0438 39.9687L22.3858 39.6919L22.7883 39.9853L22.4191 40.9866ZM22.4178 45.1535C21.8169 45.1535 21.3281 44.6674 21.3281 44.0699V43.6776H23.5075V44.0699C23.5075 44.6674 23.0186 45.1535 22.4178 45.1535ZM24.01 42.2903H23.4168L24.7302 38.7279C24.8627 38.3685 24.6788 37.9698 24.3193 37.8373C23.9602 37.7048 23.5612 37.8887 23.4287 38.2481L23.287 38.6323L22.7722 38.257C22.5184 38.072 22.1717 38.0807 21.9274 38.2784L21.537 38.5944L21.4097 38.2491C21.2772 37.8897 20.8786 37.7058 20.519 37.8383C20.1596 37.9709 19.9757 38.3696 20.1082 38.729L21.4213 42.2903H20.8366C19.9533 41.7323 19.3909 40.7299 19.3909 39.69C19.3909 38.0217 20.7484 36.6645 22.4169 36.6645C24.0855 36.6645 25.4429 38.0217 25.4429 39.69C25.4429 40.7283 24.8857 41.7305 24.01 42.2903Z" fill="black"/>
<path d="M20.856 29.5515C20.7174 29.5515 20.608 29.5116 20.554 29.4871C20.4217 29.4271 20.0022 29.1784 20.1567 28.4976L20.9099 25.1763H19.9735C19.6011 25.1763 19.2812 25.0008 19.1177 24.7068C18.9543 24.4129 18.9741 24.0486 19.1706 23.7323L22.444 18.4686C22.8103 17.8792 23.2829 17.9935 23.4189 18.0425C23.555 18.0915 23.9918 18.3049 23.8981 18.9923L23.441 22.342H24.6834C25.0664 22.342 25.3878 22.5237 25.5429 22.8282C25.6981 23.1326 25.6564 23.4993 25.4313 23.8092L21.5602 29.1342C21.3175 29.4681 21.0563 29.5515 20.856 29.5515ZM20.7686 23.7893H21.7783C21.9892 23.7893 22.1887 23.8852 22.3203 24.05C22.4518 24.2148 22.5013 24.4305 22.4547 24.6362L22.1553 25.9569L23.7747 23.7292H22.6463C22.446 23.7292 22.2555 23.6426 22.1238 23.4918C21.9922 23.3408 21.9321 23.1404 21.9592 22.9419L22.1457 21.5749L20.7686 23.7893Z" fill="black"/>
<path d="M37.5213 33.6461C37.9487 33.6461 38.2965 33.2983 38.2965 32.8709C38.2965 32.4434 37.9487 32.0957 37.5213 32.0957C37.0939 32.0957 36.7461 32.4434 36.7461 32.8709C36.7462 33.2983 37.0939 33.6461 37.5213 33.6461Z" fill="black"/>
<path d="M32.4627 32.0957C32.0353 32.0957 31.6875 32.4434 31.6875 32.8709C31.6875 33.2983 32.0352 33.6461 32.4627 33.6461C32.8901 33.6461 33.2379 33.2984 33.2379 32.8709C33.2379 32.4435 32.8901 32.0957 32.4627 32.0957Z" fill="black"/>
<path d="M49.0363 50.6143H45.1885V45.9249C45.1885 44.573 44.3726 43.289 43.2046 42.8023L38.7411 40.9425C38.5824 40.8765 38.4799 40.7226 38.4799 40.5506V39.4707L40.2928 38.4312C40.3054 38.4239 40.3178 38.4163 40.33 38.4082C41.2377 37.8088 41.8337 36.7428 41.9243 35.5565C41.9257 35.539 41.9263 35.5213 41.9263 35.5037V34.9279C42.827 34.635 43.4798 33.7874 43.4798 32.7903C43.4798 31.7932 42.827 30.9458 41.9263 30.6528V30.0913H42.6306C43.1492 30.0913 43.5712 29.6694 43.5712 29.1508V27.7677C43.5712 27.3175 43.2533 26.9403 42.8301 26.8485C42.58 25.1077 41.7612 23.4971 40.4863 22.26C39.5735 21.3743 38.4689 20.7221 37.2652 20.354V19.8619C37.2652 19.3263 36.8432 18.8906 36.3246 18.8906H33.6573C33.1386 18.8906 32.7167 19.3264 32.7167 19.8619V20.3149C31.4615 20.6747 30.3115 21.3404 29.3638 22.2599C28.0789 23.5068 27.2573 25.133 27.0142 26.8895C26.6616 27.0253 26.4107 27.3677 26.4107 27.7676V29.1506C26.4107 29.6693 26.8327 30.0912 27.3513 30.0912H28.0556V30.6526C27.155 30.9456 26.5021 31.7931 26.5021 32.7902C26.5021 33.7873 27.155 34.6348 28.0556 34.9278V35.5035C28.0556 35.5211 28.0562 35.5389 28.0576 35.5564C28.1486 36.7475 28.7405 37.8135 29.6408 38.4081C29.6532 38.4163 29.6658 38.4241 29.6788 38.4315L31.502 39.4738V40.5505C31.502 40.7224 31.3994 40.8762 31.2408 40.9424L26.7773 42.8022C25.6092 43.2889 24.7934 44.573 24.7934 45.9248V50.6141H20.9455C20.5625 50.6141 20.252 50.9246 20.252 51.3077C20.252 51.6907 20.5625 52.0012 20.9455 52.0012H49.0363C49.4192 52.0012 49.7298 51.6907 49.7298 51.3077C49.7298 50.9246 49.4193 50.6143 49.0363 50.6143ZM27.7978 28.1979C28.093 28.1324 28.3193 27.8786 28.3393 27.565C28.4437 25.9303 29.1506 24.3998 30.3298 23.2556C31.2263 22.3858 32.3409 21.7911 33.5533 21.5356C33.8742 21.468 34.1039 21.1849 34.1039 20.857V20.2778H35.8781V20.886C35.8781 21.2092 36.1012 21.4894 36.416 21.5618C37.5815 21.8301 38.6549 22.4157 39.5203 23.2556C40.6996 24.3998 41.4064 25.9302 41.5109 27.565C41.5338 27.9238 41.8267 28.2044 42.1841 28.214V28.7043H27.7978V28.1979ZM30.3881 37.2394C29.8582 36.8805 29.5064 36.2244 29.4426 35.4758V34.3439C29.4426 33.9608 29.132 33.6503 28.749 33.6503C28.2748 33.6503 27.8891 33.2645 27.8891 32.7904C27.8891 32.3163 28.2749 31.9305 28.749 31.9305C29.132 31.9305 29.4426 31.62 29.4426 31.2369V30.0914H40.5392V31.2369C40.5392 31.62 40.8497 31.9305 41.2327 31.9305C41.7069 31.9305 42.0926 32.3163 42.0926 32.7904C42.0926 33.2645 41.7068 33.6503 41.2327 33.6503C40.8497 33.6503 40.5392 33.9608 40.5392 34.3439V35.4756C40.4762 36.209 40.1115 36.8811 39.582 37.2397L35.8585 39.3747C35.8458 39.382 35.8334 39.3897 35.8213 39.3977C35.3012 39.7411 34.6806 39.7411 34.1606 39.3977C34.1482 39.3895 34.1355 39.3817 34.1226 39.3743L30.3881 37.2394ZM34.3008 50.6143H26.1804V45.9249C26.1804 45.1432 26.6664 44.3512 27.3108 44.0827L30.992 42.5489L32.0409 45.4869C32.1258 45.7246 32.3331 45.8974 32.5822 45.9382C32.6196 45.9443 32.657 45.9473 32.6942 45.9473C32.9047 45.9473 33.1063 45.8513 33.239 45.6828L34.3008 44.3342V50.6143V50.6143ZM32.2489 41.9442C32.6731 42.3419 33.1762 42.6408 33.7256 42.8223L32.9253 43.8388L32.2489 41.9442ZM32.8879 40.5843C32.8881 40.573 32.8891 40.562 32.8891 40.5505V40.2668L33.4161 40.5681C33.903 40.8842 34.447 41.0423 34.9911 41.0423C35.5353 41.0423 36.0794 40.8841 36.5664 40.5677L37.0928 40.2658V40.5505C37.0928 40.5646 37.0941 40.5785 37.0944 40.5925C36.5969 41.2507 35.8279 41.6383 34.9944 41.6383C34.1567 41.6385 33.3851 41.2477 32.8879 40.5843ZM37.74 41.9438L37.0634 43.8387L36.2629 42.822C36.8123 42.6404 37.3157 42.3416 37.74 41.9438ZM43.8015 50.6143H35.6879V44.3339L36.7497 45.6827C36.8825 45.8513 37.0841 45.9472 37.2946 45.9472C37.3317 45.9472 37.3692 45.9442 37.4065 45.9381C37.6556 45.8974 37.863 45.7245 37.9478 45.4868L38.9959 42.5512L42.6712 44.0826C43.3155 44.3511 43.8015 45.1431 43.8015 45.9249V50.6143Z" fill="black"/>
<path d="M35.7991 24.2748H35.6874L35.993 23.8978C36.2342 23.6002 36.1885 23.1634 35.891 22.9223C35.5935 22.6812 35.1566 22.7269 34.9155 23.0244L33.6938 24.5316C33.5254 24.7394 33.4915 25.0254 33.6066 25.2668C33.7216 25.5081 33.9652 25.6619 34.2326 25.6619H34.2891L33.8372 26.1879C33.5876 26.4784 33.6209 26.9163 33.9113 27.1659C34.0422 27.2784 34.203 27.3334 34.3629 27.3334C34.5581 27.3334 34.7521 27.2515 34.8894 27.0917L36.3253 25.4202C36.5018 25.2146 36.5425 24.9251 36.4294 24.6789C36.3163 24.4326 36.0701 24.2748 35.7991 24.2748Z" fill="black"/>
<path d="M49.8427 30.6438H49.0037V26.0305L50.2798 24.8136C50.4674 24.6349 50.5396 24.3664 50.4671 24.1177L49.7042 21.4996C49.618 21.2036 49.3467 21 49.0384 21H47.5819C47.2737 21 47.0023 21.2035 46.9161 21.4996L46.1532 24.1177C46.0807 24.3664 46.1529 24.6349 46.3404 24.8136L47.6165 26.0305V30.6438H46.7775C46.3946 30.6438 46.084 30.9543 46.084 31.3373V37.5829C46.084 38.8103 47.0825 39.8089 48.31 39.8089C49.5375 39.8089 50.536 38.8104 50.536 37.5829V31.3373C50.5362 30.9543 50.2257 30.6438 49.8427 30.6438ZM48.1023 22.3871H48.5181L49.0175 24.1007L48.3102 24.7752L47.6029 24.1008L48.1023 22.3871ZM49.1491 37.5829C49.1491 38.0455 48.7727 38.4219 48.3101 38.4219C47.8476 38.4219 47.4712 38.0455 47.4712 37.5829V32.0309H49.1491V37.5829H49.1491Z" fill="black"/>
</svg>
